<?xml version="1.0" standalone="no"?><svg xmlns:xlink="http://www.w3.org/1999/xlink" xmlns="http://www.w3.org/2000/svg" viewBox="0 0 1000 777.7914060264116" preserveAspectRatio="xMaxYMax slice"><g transform="scale(1.6353898360521688)"><rect x="0" y="0" width="611.4857142857144" height="475.6" fill="#ffffff"/><rect x="6.794285714285715" y="6.794285714285715" width="54.35428571428572" height="54.35428571428572" fill="#ffffff"/><rect x="6.79" y="6.79" width="27.18" height="27.18" fill="#9f496e"/><polygon points="6.79,6.79 33.97,33.97 6.79,33.97" fill="#9f496e"/><rect x="33.97" y="6.79" width="27.18" height="27.18" fill="#2C272F"/><circle cx="47.56" cy="20.38" r="13.59" fill="#2C272F"/><rect x="6.79" y="33.97" width="27.18" height="27.18" fill="#2C272F"/><polygon points="33.97,33.97 33.97,61.15 6.79,61.15" fill="#9f496e"/><rect x="33.97" y="33.97" width="27.18" height="27.18" fill="#2C272F"/><polygon points="33.97,33.97 61.15,61.15 33.97,61.15" fill="#9f496e"/><rect x="346.5085714285715" y="6.794285714285715" width="54.35428571428572" height="54.35428571428572" fill="#ffffff"/><rect x="346.51" y="6.79" width="27.18" height="27.18" fill="#2C272F"/><g transform="translate(346.51,6.79) scale(1.359) rotate(0)"><path d="M5 0H10L5 5L0 10V5L5 0Z" fill="#9f496e"/><path d="M20 15V20H15L20 15Z" fill="#9f496e"/><path d="M20 5V10L15 15L10 20H5L20 5Z" fill="#9f496e"/><path d="M15 0H20L5 15.0002L0 20.0002V15.0002L15 0Z" fill="#9f496e"/></g><rect x="373.69" y="6.79" width="27.18" height="27.18" fill="#2C272F"/><path d="M 373.69 6.79 A 27.18 27.18 0 0 1  400.87 33.97 L 373.69 6.79 A 27.18 27.18 0 0 0 400.87 33.97" fill="#2C272F"/><rect x="346.51" y="33.97" width="27.18" height="27.18" fill="#2C272F"/><g transform="translate(346.51,33.97) scale(1.359) rotate(0)"><path d="M10 0H20L0 20V10L10 0Z" fill="#2C272F"/><path d="M20 10V20H10L20 10Z" fill="#2C272F"/></g><rect x="482.39428571428573" y="6.794285714285715" width="54.35428571428572" height="54.35428571428572" fill="#ffffff"/><rect x="482.39" y="6.79" width="27.18" height="27.18" fill="#9f496e"/><g transform="translate(482.39,6.79) scale(1.359) rotate(0)"><path d="M10 5L5 0L0 5L5 10L0 15L5 20L10 15L15 20L20 15L15 10L20 5L15 0L10 5Z" fill="#2C272F"/></g><rect x="482.39" y="33.97" width="27.18" height="27.18" fill="#2C272F"/><g transform="translate(482.39,33.97) scale(1.359) rotate(0)"><path d="M10 0L20 10L10 20L0 10L10 0Z" fill="#9f496e"/></g><rect x="509.57" y="33.97" width="27.18" height="27.18" fill="#9f496e"/><g transform="translate(509.57,33.97) scale(1.359) rotate(0)"><path d="M10 0L20 10L10 20L0 10L10 0Z" fill="#2C272F"/></g><rect x="6.794285714285715" y="74.73714285714287" width="54.35428571428572" height="54.35428571428572" fill="#ffffff"/><rect x="6.79" y="74.74" width="27.18" height="27.18" fill="#9f496e"/><polygon points="33.97,74.74 33.97,101.91999999999999 6.79,101.91999999999999" fill="#9f496e"/><rect x="33.97" y="74.74" width="27.18" height="27.18" fill="#2C272F"/><circle cx="47.56" cy="88.33" r="13.59" fill="#2C272F"/><rect x="33.97" y="101.91" width="27.18" height="27.18" fill="#2C272F"/><g transform="translate(33.97,101.91) scale(1.359) rotate(0)"><path d="M10 5L5 0L0 5L5 10L0 15L5 20L10 15L15 20L20 15L15 10L20 5L15 0L10 5Z" fill="#9f496e"/></g><rect x="142.68" y="74.73714285714287" width="54.35428571428572" height="54.35428571428572" fill="#ffffff"/><rect x="142.68" y="74.74" width="27.18" height="27.18" fill="#9f496e"/><g transform="translate(142.68,74.74) scale(1.359) rotate(0)"><path d="M10 5L5 0L0 5L5 10L0 15L5 20L10 15L15 20L20 15L15 10L20 5L15 0L10 5Z" fill="#9f496e"/></g><rect x="169.86" y="74.74" width="27.18" height="27.18" fill="#2C272F"/><g transform="translate(169.86,74.74) scale(1.359) rotate(0)"><path d="M10 5L5 0L0 5L5 10L0 15L5 20L10 15L15 20L20 15L15 10L20 5L15 0L10 5Z" fill="#9f496e"/></g><rect x="169.86" y="101.91" width="27.18" height="27.18" fill="#2C272F"/><g transform="translate(169.86,101.91) scale(1.359) rotate(0)"><path d="M5 0H10L5 5L0 10V5L5 0Z" fill="#9f496e"/><path d="M20 15V20H15L20 15Z" fill="#9f496e"/><path d="M20 5V10L15 15L10 20H5L20 5Z" fill="#9f496e"/><path d="M15 0H20L5 15.0002L0 20.0002V15.0002L15 0Z" fill="#9f496e"/></g><rect x="210.62285714285716" y="74.73714285714287" width="54.35428571428572" height="54.35428571428572" fill="#ffffff"/><rect x="210.62" y="74.74" width="27.18" height="27.18" fill="#2C272F"/><g transform="translate(210.62,74.74) scale(1.359) rotate(0)"><path d="M10 0L20 10L10 20L0 10L10 0Z" fill="#9f496e"/></g><rect x="237.8" y="74.74" width="27.18" height="27.18" fill="#2C272F"/><g transform="translate(237.8,74.74) scale(1.359) rotate(0)"><path d="M5 0H10L5 5L0 10V5L5 0Z" fill="#2C272F"/><path d="M20 15V20H15L20 15Z" fill="#2C272F"/><path d="M20 5V10L15 15L10 20H5L20 5Z" fill="#2C272F"/><path d="M15 0H20L5 15.0002L0 20.0002V15.0002L15 0Z" fill="#2C272F"/></g><rect x="210.62" y="101.91" width="27.18" height="27.18" fill="#9f496e"/><g transform="translate(210.62,101.91) scale(1.359) rotate(0)"><path d="M10 5L5 0L0 5L5 10L0 15L5 20L10 15L15 20L20 15L15 10L20 5L15 0L10 5Z" fill="#9f496e"/></g><rect x="237.8" y="101.91" width="27.18" height="27.18" fill="#9f496e"/><g transform="translate(237.8,101.91) scale(1.359) rotate(0)"><path d="M10 0L20 10L10 20L0 10L10 0Z" fill="#2C272F"/></g><rect x="346.5085714285715" y="74.73714285714287" width="54.35428571428572" height="54.35428571428572" fill="#ffffff"/><rect x="346.51" y="74.74" width="27.18" height="27.18" fill="#2C272F"/><polygon points="346.51,74.74 373.69,101.91999999999999 346.51,101.91999999999999" fill="#2C272F"/><rect x="373.69" y="74.74" width="27.18" height="27.18" fill="#9f496e"/><polygon points="373.69,74.74 400.87,101.91999999999999 373.69,101.91999999999999" fill="#2C272F"/><rect x="346.51" y="101.91" width="27.18" height="27.18" fill="#9f496e"/><g transform="translate(346.51,101.91) scale(1.359) rotate(0)"><path d="M10 5L5 0L0 5L5 10L0 15L5 20L10 15L15 20L20 15L15 10L20 5L15 0L10 5Z" fill="#2C272F"/></g><rect x="414.4514285714286" y="74.73714285714287" width="54.35428571428572" height="54.35428571428572" fill="#ffffff"/><rect x="414.45" y="74.74" width="27.18" height="27.18" fill="#2C272F"/><circle cx="428.03999999999996" cy="88.33" r="13.59" fill="#2C272F"/><rect x="74.73714285714287" y="142.68" width="54.35428571428572" height="54.35428571428572" fill="#ffffff"/><rect x="101.91" y="142.68" width="27.18" height="27.18" fill="#9f496e"/><g transform="translate(101.91,142.68) scale(1.359) rotate(0)"><path d="M10 0L20 10L10 20L0 10L10 0Z" fill="#2C272F"/></g><rect x="74.74" y="169.86" width="27.18" height="27.18" fill="#2C272F"/><g transform="translate(74.74,169.86) scale(1.359) rotate(0)"><rect width="2" height="20" fill="#9f496e"/><rect x="4" width="2" height="20" fill="#9f496e"/><rect x="8" width="2" height="20" fill="#9f496e"/><rect x="12" width="2" height="20" fill="#9f496e"/><rect x="16" width="2" height="20" fill="#9f496e"/></g><rect x="142.68" y="142.68" width="54.35428571428572" height="54.35428571428572" fill="#ffffff"/><rect x="142.68" y="142.68" width="27.18" height="27.18" fill="#9f496e"/><polygon points="142.68,142.68 169.86,169.86 142.68,169.86" fill="#2C272F"/><rect x="142.68" y="169.86" width="27.18" height="27.18" fill="#9f496e"/><g transform="translate(142.68,169.86) scale(1.359) rotate(0)"><path d="M10 0L20 10L10 20L0 10L10 0Z" fill="#9f496e"/></g><rect x="169.86" y="169.86" width="27.18" height="27.18" fill="#9f496e"/><path d="M 169.86 197.04000000000002 A 27.18 27.18 0 0 1  197.04000000000002 169.86 L 197.04000000000002 197.04000000000002" fill="#2C272F"/><rect x="210.62285714285716" y="142.68" width="54.35428571428572" height="54.35428571428572" fill="#ffffff"/><rect x="210.62" y="142.68" width="27.18" height="27.18" fill="#2C272F"/><polygon points="210.62,142.68 237.8,142.68 237.8,169.86" fill="#2C272F"/><rect x="237.8" y="142.68" width="27.18" height="27.18" fill="#2C272F"/><path d="M 237.8 142.68 A 27.18 27.18 0 0 1  264.98 169.86 L 237.8 142.68 A 27.18 27.18 0 0 0 264.98 169.86" fill="#2C272F"/><rect x="210.62" y="169.86" width="27.18" height="27.18" fill="#9f496e"/><g transform="translate(210.62,169.86) scale(1.359) rotate(0)"><path d="M5 0H10L5 5L0 10V5L5 0Z" fill="#2C272F"/><path d="M20 15V20H15L20 15Z" fill="#2C272F"/><path d="M20 5V10L15 15L10 20H5L20 5Z" fill="#2C272F"/><path d="M15 0H20L5 15.0002L0 20.0002V15.0002L15 0Z" fill="#2C272F"/></g><rect x="237.8" y="169.86" width="27.18" height="27.18" fill="#9f496e"/><polygon points="237.8,169.86 264.98,169.86 264.98,197.04000000000002" fill="#2C272F"/><rect x="278.5657142857143" y="142.68" width="54.35428571428572" height="54.35428571428572" fill="#ffffff"/><rect x="278.57" y="169.86" width="27.18" height="27.18" fill="#2C272F"/><g transform="translate(278.57,169.86) scale(1.359) rotate(0)"><path d="M5 0H10L5 5L0 10V5L5 0Z" fill="#2C272F"/><path d="M20 15V20H15L20 15Z" fill="#2C272F"/><path d="M20 5V10L15 15L10 20H5L20 5Z" fill="#2C272F"/><path d="M15 0H20L5 15.0002L0 20.0002V15.0002L15 0Z" fill="#2C272F"/></g><rect x="305.74" y="169.86" width="27.18" height="27.18" fill="#2C272F"/><g transform="translate(305.74,169.86) scale(1.359) rotate(0)"><path d="M10 0L20 10L10 20L0 10L10 0Z" fill="#2C272F"/></g><rect x="6.794285714285715" y="210.62285714285716" width="54.35428571428572" height="54.35428571428572" fill="#ffffff"/><rect x="33.97" y="237.8" width="27.18" height="27.18" fill="#9f496e"/><g transform="translate(33.97,237.8) scale(1.359) rotate(0)"><path d="M10 5L5 0L0 5L5 10L0 15L5 20L10 15L15 20L20 15L15 10L20 5L15 0L10 5Z" fill="#2C272F"/></g><rect x="142.68" y="210.62285714285716" width="54.35428571428572" height="54.35428571428572" fill="#ffffff"/><rect x="142.68" y="210.62" width="27.18" height="27.18" fill="#2C272F"/><polygon points="169.86,210.62 169.86,237.8 142.68,237.8" fill="#9f496e"/><rect x="169.86" y="210.62" width="27.18" height="27.18" fill="#2C272F"/><g transform="translate(169.86,210.62) scale(1.359) rotate(0)"><path d="M10 5L5 0L0 5L5 10L0 15L5 20L10 15L15 20L20 15L15 10L20 5L15 0L10 5Z" fill="#2C272F"/></g><rect x="142.68" y="237.8" width="27.18" height="27.18" fill="#2C272F"/><polygon points="142.68,237.8 169.86,237.8 142.68,264.98" fill="#9f496e"/><rect x="169.86" y="237.8" width="27.18" height="27.18" fill="#9f496e"/><path d="M 169.86 237.8 A 27.18 27.18 0 0 0 197.04000000000002 264.98 L 197.04000000000002 237.8" fill="#9f496e"/><rect x="210.62285714285716" y="210.62285714285716" width="54.35428571428572" height="54.35428571428572" fill="#ffffff"/><rect x="237.8" y="237.8" width="27.18" height="27.18" fill="#2C272F"/><polygon points="237.8,237.8 264.98,264.98 237.8,264.98" fill="#9f496e"/><rect x="278.5657142857143" y="210.62285714285716" width="54.35428571428572" height="54.35428571428572" fill="#ffffff"/><rect x="278.57" y="210.62" width="27.18" height="27.18" fill="#9f496e"/><g transform="translate(278.57,210.62) scale(1.359) rotate(0)"><path d="M10 0L20 10L10 20L0 10L10 0Z" fill="#2C272F"/></g><rect x="305.74" y="210.62" width="27.18" height="27.18" fill="#9f496e"/><g transform="translate(305.74,210.62) scale(1.359) rotate(0)"><path d="M10 5L5 0L0 5L5 10L0 15L5 20L10 15L15 20L20 15L15 10L20 5L15 0L10 5Z" fill="#9f496e"/></g><rect x="278.57" y="237.8" width="27.18" height="27.18" fill="#2C272F"/><g transform="translate(278.57,237.8) scale(1.359) rotate(0)"><path d="M10 5L5 0L0 5L5 10L0 15L5 20L10 15L15 20L20 15L15 10L20 5L15 0L10 5Z" fill="#9f496e"/></g><rect x="305.74" y="237.8" width="27.18" height="27.18" fill="#9f496e"/><g transform="translate(305.74,237.8) scale(1.359) rotate(0)"><path d="M10 0H20L0 20V10L10 0Z" fill="#2C272F"/><path d="M20 10V20H10L20 10Z" fill="#2C272F"/></g><rect x="346.5085714285715" y="210.62285714285716" width="54.35428571428572" height="54.35428571428572" fill="#ffffff"/><rect x="346.51" y="237.8" width="27.18" height="27.18" fill="#9f496e"/><circle cx="360.09999999999997" cy="251.39000000000001" r="13.59" fill="#2C272F"/><rect x="414.4514285714286" y="210.62285714285716" width="54.35428571428572" height="54.35428571428572" fill="#ffffff"/><rect x="414.45" y="210.62" width="27.18" height="27.18" fill="#9f496e"/><polygon points="414.45,210.62 441.63,237.8 414.45,237.8" fill="#2C272F"/><rect x="414.45" y="237.8" width="27.18" height="27.18" fill="#9f496e"/><g transform="translate(414.45,237.8) scale(1.359) rotate(0)"><path d="M10 0H20L0 20V10L10 0Z" fill="#2C272F"/><path d="M20 10V20H10L20 10Z" fill="#2C272F"/></g><rect x="441.63" y="237.8" width="27.18" height="27.18" fill="#9f496e"/><polygon points="441.63,237.8 468.81,237.8 468.81,264.98" fill="#9f496e"/><rect x="482.39428571428573" y="210.62285714285716" width="54.35428571428572" height="54.35428571428572" fill="#ffffff"/><rect x="509.57" y="210.62" width="27.18" height="27.18" fill="#9f496e"/><g transform="translate(509.57,210.62) scale(1.359) rotate(0)"><path d="M10 0H20L0 20V10L10 0Z" fill="#2C272F"/><path d="M20 10V20H10L20 10Z" fill="#2C272F"/></g><rect x="482.39" y="237.8" width="27.18" height="27.18" fill="#2C272F"/><g transform="translate(482.39,237.8) scale(1.359) rotate(0)"><path d="M10 0L20 10L10 20L0 10L10 0Z" fill="#9f496e"/></g><rect x="509.57" y="237.8" width="27.18" height="27.18" fill="#9f496e"/><polygon points="509.57,237.8 536.75,237.8 509.57,264.98" fill="#9f496e"/><rect x="550.3371428571429" y="210.62285714285716" width="54.35428571428572" height="54.35428571428572" fill="#ffffff"/><rect x="550.34" y="210.62" width="27.18" height="27.18" fill="#9f496e"/><g transform="translate(550.34,210.62) scale(1.359) rotate(0)"><rect width="2" height="20" fill="#2C272F"/><rect x="4" width="2" height="20" fill="#2C272F"/><rect x="8" width="2" height="20" fill="#2C272F"/><rect x="12" width="2" height="20" fill="#2C272F"/><rect x="16" width="2" height="20" fill="#2C272F"/></g><rect x="577.51" y="210.62" width="27.18" height="27.18" fill="#2C272F"/><g transform="translate(577.51,210.62) scale(1.359) rotate(0)"><rect width="2" height="20" fill="#2C272F"/><rect x="4" width="2" height="20" fill="#2C272F"/><rect x="8" width="2" height="20" fill="#2C272F"/><rect x="12" width="2" height="20" fill="#2C272F"/><rect x="16" width="2" height="20" fill="#2C272F"/></g><rect x="550.34" y="237.8" width="27.18" height="27.18" fill="#2C272F"/><g transform="translate(550.34,237.8) scale(1.359) rotate(0)"><rect width="2" height="20" fill="#9f496e"/><rect x="4" width="2" height="20" fill="#9f496e"/><rect x="8" width="2" height="20" fill="#9f496e"/><rect x="12" width="2" height="20" fill="#9f496e"/><rect x="16" width="2" height="20" fill="#9f496e"/></g><rect x="74.73714285714287" y="278.5657142857143" width="54.35428571428572" height="54.35428571428572" fill="#ffffff"/><rect x="101.91" y="278.57" width="27.18" height="27.18" fill="#9f496e"/><g transform="translate(101.91,278.57) scale(1.359) rotate(0)"><rect width="2" height="20" fill="#9f496e"/><rect x="4" width="2" height="20" fill="#9f496e"/><rect x="8" width="2" height="20" fill="#9f496e"/><rect x="12" width="2" height="20" fill="#9f496e"/><rect x="16" width="2" height="20" fill="#9f496e"/></g><rect x="101.91" y="305.74" width="27.18" height="27.18" fill="#9f496e"/><g transform="translate(101.91,305.74) scale(1.359) rotate(0)"><path d="M10 0L20 10L10 20L0 10L10 0Z" fill="#9f496e"/></g><rect x="210.62285714285716" y="278.5657142857143" width="54.35428571428572" height="54.35428571428572" fill="#ffffff"/><rect x="210.62" y="278.57" width="27.18" height="27.18" fill="#9f496e"/><g transform="translate(210.62,278.57) scale(1.359) rotate(0)"><path d="M10 5L5 0L0 5L5 10L0 15L5 20L10 15L15 20L20 15L15 10L20 5L15 0L10 5Z" fill="#9f496e"/></g><rect x="237.8" y="278.57" width="27.18" height="27.18" fill="#9f496e"/><g transform="translate(237.8,278.57) scale(1.359) rotate(0)"><path d="M10 0L20 10L10 20L0 10L10 0Z" fill="#2C272F"/></g><rect x="237.8" y="305.74" width="27.18" height="27.18" fill="#9f496e"/><g transform="translate(237.8,305.74) scale(1.359) rotate(0)"><path d="M5 0H10L5 5L0 10V5L5 0Z" fill="#2C272F"/><path d="M20 15V20H15L20 15Z" fill="#2C272F"/><path d="M20 5V10L15 15L10 20H5L20 5Z" fill="#2C272F"/><path d="M15 0H20L5 15.0002L0 20.0002V15.0002L15 0Z" fill="#2C272F"/></g><rect x="278.5657142857143" y="278.5657142857143" width="54.35428571428572" height="54.35428571428572" fill="#ffffff"/><rect x="278.57" y="278.57" width="27.18" height="27.18" fill="#2C272F"/><path d="M 278.57 278.57 A 27.18 27.18 0 0 1  305.75 305.75 L 278.57 278.57 A 27.18 27.18 0 0 0 305.75 305.75" fill="#9f496e"/><rect x="278.57" y="305.74" width="27.18" height="27.18" fill="#9f496e"/><g transform="translate(278.57,305.74) scale(1.359) rotate(0)"><path d="M10 0H20L0 20V10L10 0Z" fill="#9f496e"/><path d="M20 10V20H10L20 10Z" fill="#9f496e"/></g><rect x="305.74" y="305.74" width="27.18" height="27.18" fill="#9f496e"/><g transform="translate(305.74,305.74) scale(1.359) rotate(0)"><path d="M10 0L20 10L10 20L0 10L10 0Z" fill="#2C272F"/></g><rect x="414.4514285714286" y="278.5657142857143" width="54.35428571428572" height="54.35428571428572" fill="#ffffff"/><rect x="414.45" y="278.57" width="27.18" height="27.18" fill="#9f496e"/><polygon points="414.45,278.57 441.63,278.57 414.45,305.75" fill="#9f496e"/><rect x="441.63" y="305.74" width="27.18" height="27.18" fill="#9f496e"/><path d="M 441.63 305.74 A 27.18 27.18 0 0 0 468.81 332.92 L 468.81 305.74" fill="#2C272F"/><rect x="482.39428571428573" y="278.5657142857143" width="54.35428571428572" height="54.35428571428572" fill="#ffffff"/><rect x="482.39" y="278.57" width="27.18" height="27.18" fill="#9f496e"/><path d="M 482.39 278.57 A 27.18 27.18 0 0 0 509.57 305.75 L 509.57 278.57" fill="#2C272F"/><rect x="509.57" y="278.57" width="27.18" height="27.18" fill="#2C272F"/><g transform="translate(509.57,278.57) scale(1.359) rotate(0)"><path d="M10 0L20 10L10 20L0 10L10 0Z" fill="#2C272F"/></g><rect x="482.39" y="305.74" width="27.18" height="27.18" fill="#9f496e"/><g transform="translate(482.39,305.74) scale(1.359) rotate(0)"><path d="M10 5L5 0L0 5L5 10L0 15L5 20L10 15L15 20L20 15L15 10L20 5L15 0L10 5Z" fill="#2C272F"/></g><rect x="509.57" y="305.74" width="27.18" height="27.18" fill="#2C272F"/><g transform="translate(509.57,305.74) scale(1.359) rotate(0)"><path d="M5 0H10L5 5L0 10V5L5 0Z" fill="#9f496e"/><path d="M20 15V20H15L20 15Z" fill="#9f496e"/><path d="M20 5V10L15 15L10 20H5L20 5Z" fill="#9f496e"/><path d="M15 0H20L5 15.0002L0 20.0002V15.0002L15 0Z" fill="#9f496e"/></g><rect x="550.3371428571429" y="278.5657142857143" width="54.35428571428572" height="54.35428571428572" fill="#ffffff"/><rect x="577.51" y="305.74" width="27.18" height="27.18" fill="#9f496e"/><path d="M 577.51 305.74 A 27.18 27.18 0 0 0 604.6899999999999 332.92 L 604.6899999999999 305.74" fill="#9f496e"/><rect x="74.73714285714287" y="346.5085714285715" width="54.35428571428572" height="54.35428571428572" fill="#ffffff"/><rect x="74.74" y="346.51" width="27.18" height="27.18" fill="#9f496e"/><g transform="translate(74.74,346.51) scale(1.359) rotate(0)"><path d="M10 0L20 10L10 20L0 10L10 0Z" fill="#9f496e"/></g><rect x="101.91" y="346.51" width="27.18" height="27.18" fill="#9f496e"/><g transform="translate(101.91,346.51) scale(1.359) rotate(0)"><rect width="2" height="20" fill="#2C272F"/><rect x="4" width="2" height="20" fill="#2C272F"/><rect x="8" width="2" height="20" fill="#2C272F"/><rect x="12" width="2" height="20" fill="#2C272F"/><rect x="16" width="2" height="20" fill="#2C272F"/></g><rect x="101.91" y="373.69" width="27.18" height="27.18" fill="#2C272F"/><circle cx="115.5" cy="387.28" r="13.59" fill="#2C272F"/><rect x="142.68" y="346.5085714285715" width="54.35428571428572" height="54.35428571428572" fill="#ffffff"/><rect x="169.86" y="346.51" width="27.18" height="27.18" fill="#2C272F"/><g transform="translate(169.86,346.51) scale(1.359) rotate(0)"><rect width="2" height="20" fill="#9f496e"/><rect x="4" width="2" height="20" fill="#9f496e"/><rect x="8" width="2" height="20" fill="#9f496e"/><rect x="12" width="2" height="20" fill="#9f496e"/><rect x="16" width="2" height="20" fill="#9f496e"/></g><rect x="142.68" y="373.69" width="27.18" height="27.18" fill="#9f496e"/><g transform="translate(142.68,373.69) scale(1.359) rotate(0)"><rect width="2" height="20" fill="#9f496e"/><rect x="4" width="2" height="20" fill="#9f496e"/><rect x="8" width="2" height="20" fill="#9f496e"/><rect x="12" width="2" height="20" fill="#9f496e"/><rect x="16" width="2" height="20" fill="#9f496e"/></g><rect x="169.86" y="373.69" width="27.18" height="27.18" fill="#9f496e"/><path d="M 169.86 373.69 A 27.18 27.18 0 0 1 197.04000000000002 400.87 L 169.86 400.87" fill="#2C272F"/><rect x="210.62285714285716" y="346.5085714285715" width="54.35428571428572" height="54.35428571428572" fill="#ffffff"/><rect x="278.5657142857143" y="346.5085714285715" width="54.35428571428572" height="54.35428571428572" fill="#ffffff"/><rect x="278.57" y="346.51" width="27.18" height="27.18" fill="#9f496e"/><circle cx="292.15999999999997" cy="360.09999999999997" r="13.59" fill="#2C272F"/><rect x="305.74" y="346.51" width="27.18" height="27.18" fill="#2C272F"/><path d="M 305.74 373.69 A 27.18 27.18 0 0 0 332.92 346.51 L 305.74 346.51" fill="#2C272F"/><rect x="278.57" y="373.69" width="27.18" height="27.18" fill="#2C272F"/><g transform="translate(278.57,373.69) scale(1.359) rotate(0)"><rect width="2" height="20" fill="#9f496e"/><rect x="4" width="2" height="20" fill="#9f496e"/><rect x="8" width="2" height="20" fill="#9f496e"/><rect x="12" width="2" height="20" fill="#9f496e"/><rect x="16" width="2" height="20" fill="#9f496e"/></g><rect x="414.4514285714286" y="346.5085714285715" width="54.35428571428572" height="54.35428571428572" fill="#ffffff"/><rect x="482.39428571428573" y="346.5085714285715" width="54.35428571428572" height="54.35428571428572" fill="#ffffff"/><rect x="482.39" y="346.51" width="27.18" height="27.18" fill="#9f496e"/><g transform="translate(482.39,346.51) scale(1.359) rotate(0)"><path d="M10 0H20L0 20V10L10 0Z" fill="#9f496e"/><path d="M20 10V20H10L20 10Z" fill="#9f496e"/></g><rect x="509.57" y="346.51" width="27.18" height="27.18" fill="#9f496e"/><g transform="translate(509.57,346.51) scale(1.359) rotate(0)"><path d="M5 0H10L5 5L0 10V5L5 0Z" fill="#9f496e"/><path d="M20 15V20H15L20 15Z" fill="#9f496e"/><path d="M20 5V10L15 15L10 20H5L20 5Z" fill="#9f496e"/><path d="M15 0H20L5 15.0002L0 20.0002V15.0002L15 0Z" fill="#9f496e"/></g><rect x="74.73714285714287" y="414.4514285714286" width="54.35428571428572" height="54.35428571428572" fill="#ffffff"/><rect x="74.74" y="414.45" width="27.18" height="27.18" fill="#9f496e"/><circle cx="88.33" cy="428.03999999999996" r="13.59" fill="#9f496e"/><rect x="101.91" y="414.45" width="27.18" height="27.18" fill="#2C272F"/><g transform="translate(101.91,414.45) scale(1.359) rotate(0)"><path d="M10 5L5 0L0 5L5 10L0 15L5 20L10 15L15 20L20 15L15 10L20 5L15 0L10 5Z" fill="#2C272F"/></g><rect x="74.74" y="441.63" width="27.18" height="27.18" fill="#9f496e"/><path d="M 74.74 441.63 A 27.18 27.18 0 0 0 101.91999999999999 468.81 L 101.91999999999999 441.63" fill="#9f496e"/><rect x="101.91" y="441.63" width="27.18" height="27.18" fill="#2C272F"/><polygon points="101.91,441.63 129.09,468.81 101.91,468.81" fill="#2C272F"/><rect x="414.4514285714286" y="414.4514285714286" width="54.35428571428572" height="54.35428571428572" fill="#ffffff"/><rect x="414.45" y="414.45" width="27.18" height="27.18" fill="#2C272F"/><path d="M 414.45 441.63 A 27.18 27.18 0 0 0 441.63 414.45 L 414.45 414.45" fill="#2C272F"/><rect x="441.63" y="414.45" width="27.18" height="27.18" fill="#2C272F"/><g transform="translate(441.63,414.45) scale(1.359) rotate(0)"><path d="M10 5L5 0L0 5L5 10L0 15L5 20L10 15L15 20L20 15L15 10L20 5L15 0L10 5Z" fill="#2C272F"/></g><rect x="414.45" y="441.63" width="27.18" height="27.18" fill="#9f496e"/><g transform="translate(414.45,441.63) scale(1.359) rotate(0)"><path d="M10 0L20 10L10 20L0 10L10 0Z" fill="#9f496e"/></g><rect x="441.63" y="441.63" width="27.18" height="27.18" fill="#2C272F"/><g transform="translate(441.63,441.63) scale(1.359) rotate(0)"><path d="M5 0H10L5 5L0 10V5L5 0Z" fill="#9f496e"/><path d="M20 15V20H15L20 15Z" fill="#9f496e"/><path d="M20 5V10L15 15L10 20H5L20 5Z" fill="#9f496e"/><path d="M15 0H20L5 15.0002L0 20.0002V15.0002L15 0Z" fill="#9f496e"/></g><rect x="482.39428571428573" y="414.4514285714286" width="54.35428571428572" height="54.35428571428572" fill="#ffffff"/><rect x="509.57" y="414.45" width="27.18" height="27.18" fill="#2C272F"/><polygon points="536.75,414.45 536.75,441.63 509.57,441.63" fill="#9f496e"/><rect x="482.39" y="441.63" width="27.18" height="27.18" fill="#9f496e"/><g transform="translate(482.39,441.63) scale(1.359) rotate(0)"><path d="M10 5L5 0L0 5L5 10L0 15L5 20L10 15L15 20L20 15L15 10L20 5L15 0L10 5Z" fill="#9f496e"/></g><rect x="509.57" y="441.63" width="27.18" height="27.18" fill="#9f496e"/><circle cx="523.16" cy="455.21999999999997" r="13.59" fill="#2C272F"/><rect x="550.3371428571429" y="414.4514285714286" width="54.35428571428572" height="54.35428571428572" fill="#ffffff"/><rect x="550.34" y="414.45" width="27.18" height="27.18" fill="#2C272F"/><circle cx="563.9300000000001" cy="428.03999999999996" r="13.59" fill="#9f496e"/><rect x="577.51" y="414.45" width="27.18" height="27.18" fill="#2C272F"/><path d="M 577.51 414.45 A 27.18 27.18 0 0 1  604.6899999999999 441.63 L 577.51 414.45 A 27.18 27.18 0 0 0 604.6899999999999 441.63" fill="#2C272F"/><rect x="550.34" y="441.63" width="27.18" height="27.18" fill="#9f496e"/><polygon points="550.34,441.63 577.52,468.81 550.34,468.81" fill="#2C272F"/><rect x="577.51" y="441.63" width="27.18" height="27.18" fill="#9f496e"/><g transform="translate(577.51,441.63) scale(1.359) rotate(0)"><rect width="2" height="20" fill="#9f496e"/><rect x="4" width="2" height="20" fill="#9f496e"/><rect x="8" width="2" height="20" fill="#9f496e"/><rect x="12" width="2" height="20" fill="#9f496e"/><rect x="16" width="2" height="20" fill="#9f496e"/></g></g></svg>